#!OML:ASF H:\MichaelJackson\Top Level 1\Subject 1\Session 1\male.ASF
:FULLY-SPECIFIED
:DEGREES
789
root -9.19551 16.6648 -24.3558 -170.623 -11.2614 -184.195
lowerback -1.48668 0.474868 -3.20481
upperback 1.48764 0.683494 -2.15329
thorax 2.34933 0.272012 -0.392857
lowerneck -1.90244 -4.46874 -4.49366
upperneck -0.460054 -6.16666 10.6905
head 0.717118 -3.12935 4.20467
rclavicle 1.32689e-014 -2.54444e-014
rhumerus -45.193 -1.59329 -88.3635
rradius 37.2768
rwrist 15.6999
rhand -29.1883 -23.6616
rfingers 7.12502
rthumb -2.53356 -53.6263
lclavicle 1.32689e-014 -2.54444e-014
lhumerus -53.8985 -1.16527 89.9925
lradius 47.7248
lwrist 12.0295
lhand -11.3621 11.6433
lfingers 7.12502
lthumb 14.6717 41.1043
rfemur -35.7866 -8.3197 15.9846
rtibia 45.3207
rfoot -14.8614 -6.62861
rtoes -2.74516
lfemur -22.3977 3.34532 -23.9687
ltibia 48.3498
lfoot -23.5608 -2.83871
ltoes 24.9021
790
root -9.21053 16.673 -24.2763 -170.655 -11.5238 -184.208
lowerback -1.28331 0.29808 -3.27867
upperback 1.51985 0.440316 -2.05633
thorax 2.27074 0.150077 -0.261125
lowerneck -1.97121 -4.3586 -4.40408
upperneck -0.362092 -6.02619 10.6355
head 0.74375 -3.05566 4.16871
rclavicle -2.59911e-014 2.14687e-014
rhumerus -45.1783 -1.56955 -88.2113
rradius 37.3987
rwrist 16.54
rhand -28.8208 -23.3451
rfingers 7.12502
rthumb -2.17861 -53.3137
lclavicle -2.59911e-014 2.14687e-014
lhumerus -52.7553 -1.31494 90.1995
lradius 46.6462
lwrist 11.592
lhand -12.6369 11.642
lfingers 7.12502
lthumb 13.4432 41.1882
rfemur -35.8989 -8.26106 15.8147
rtibia 45.1668
rfoot -14.4512 -6.82472
rtoes -3.1876
lfemur -22.2559 3.70409 -24.2222
ltibia 47.5022
lfoot -23.7594 -2.80539
ltoes 25.7912
791
root -9.23331 16.6868 -24.2065 -170.677 -11.9419 -184.247
lowerback -1.17476 0.0986889 -3.21444
upperback 1.50201 0.168157 -2.01327
thorax 2.19652 0.0169166 -0.261398
lowerneck -1.84152 -4.26287 -4.32978
upperneck -0.275995 -5.90928 10.621
head 0.735324 -2.99936 4.15454
rclavicle -2.48481e-015 -3.37934e-015
rhumerus -45.4562 -1.4969 -88.1695
rradius 37.7187
rwrist 17.0092
rhand -28.5241 -23.5375
rfingers 7.12502
rthumb -1.8921 -53.5089
lclavicle -2.48481e-015 -3.37934e-015
lhumerus -51.6908 -1.5329 90.3778
lradius 45.6586
lwrist 11.0894
lhand -13.5621 12.1564
lfingers 7.12502
lthumb 12.5514 41.7594
rfemur -35.8818 -8.54269 15.6073
rtibia 44.9119
rfoot -14.0748 -6.74447
rtoes -3.64041
lfemur -22.0079 3.91347 -24.491
ltibia 46.6334
lfoot -23.998 -3.00482
ltoes 27.1586
792
root -9.24705 16.6942 -24.1149 -170.736 -11.9552 -183.748
lowerback -0.745462 0.0769437 -2.70198
upperback 1.35564 0.114175 -1.8731
thorax 1.80581 0.00653127 -0.404747
lowerneck -1.82317 -4.20931 -4.25862
upperneck -0.0757413 -5.8609 10.6691
head 0.792063 -2.97298 4.15765
rclavicle -1.799e-014 5.1684e-015
rhumerus -45.8116 -1.34398 -88.2572
rradius 38.1489
rwrist 17.1291
rhand -28.5337 -23.7804
rfingers 7.12502
rthumb -1.90134 -53.7517
lclavicle -1.799e-014 5.1684e-015
lhumerus -50.6527 -1.88471 90.571
lradius 44.7601
lwrist 10.3457
lhand -14.8945 12.6143
lfingers 7.12502
lthumb 11.2665 42.2917
rfemur -36.1097 -8.10089 15.9709
rtibia 44.5951
rfoot -13.4516 -6.9452
rtoes -4.6209
lfemur -21.9895 4.40008 -24.1803
ltibia 45.8038
lfoot -24.1632 -2.87224
ltoes 26.891
793
root -9.26588 16.7075 -24.0304 -170.708 -11.9976 -183.354
lowerback -0.627116 -0.0144084 -2.31704
upperback 1.31556 -0.0129283 -1.73728
thorax 1.69944 -0.0479045 -0.48317
lowerneck -1.9883 -4.11933 -4.14908
upperneck 0.154431 -5.76337 10.6781
head 0.884452 -2.91661 4.13629
rclavicle 9.44227e-015 1.92821e-014
rhumerus -46.173 -0.868405 -88.5134
rradius 38.9123
rwrist 17.0533
rhand -28.5373 -24.5946
rfingers 7.12502
rthumb -1.90481 -54.5658
lclavicle 9.44227e-015 1.92821e-014
lhumerus -49.5368 -2.15718 90.7801
lradius 43.8248
lwrist 8.86891
lhand -16.696 11.8461
lfingers 7.12502
lthumb 9.5287 41.6106
rfemur -36.3646 -7.90895 16.2234
rtibia 44.2703
rfoot -12.907 -6.84594
rtoes -5.05527
lfemur -21.9484 4.84312 -23.9551
ltibia 44.894
lfoot -24.4065 -3.224
ltoes 28.1696
794
root -9.2839 16.7133 -23.9416 -170.631 -11.8172 -182.984
lowerback -0.370687 0.00277698 -1.90778
upperback 1.14422 -0.00177212 -1.67124
thorax 1.37933 -0.0318007 -0.643305
lowerneck -2.03176 -4.05069 -4.04766
upperneck 0.432662 -5.70222 10.7083
head 0.97486 -2.8805 4.12586
rclavicle 1.61016e-014 1.78906e-014
rhumerus -46.5142 -0.347111 -88.8968
rradius 39.3747
rwrist 16.9125
rhand -28.9284 -25.1559
rfingers 7.12502
rthumb -2.28257 -55.1234
lclavicle 1.61016e-014 1.78906e-014
lhumerus -48.6975 -2.53966 90.9134
lradius 43.4881
lwrist 7.55809
lhand -17.5404 12.2924
lfingers 7.12502
lthumb 8.71383 42.0926
rfemur -36.764 -7.65531 16.4628
rtibia 44.0014
rfoot -12.3962 -6.51857
rtoes -5.17861
lfemur -21.9448 5.40396 -23.7454
ltibia 44.0122
lfoot -24.7977 -3.60297
ltoes 29.0335
795
root -9.30573 16.7201 -23.8613 -170.468 -11.6614 -182.686
lowerback -0.38201 -0.0424395 -1.60095
upperback 1.03576 -0.0619967 -1.59829
thorax 1.27434 -0.0555216 -0.740928
lowerneck -2.18375 -3.93984 -3.84535
upperneck 0.70149 -5.57943 10.6181
head 1.0686 -2.81015 4.05271
rclavicle 3.49364e-014 1.92821e-014
rhumerus -46.898 0.428946 -89.3493
rradius 40.0495
rwrist 16.9013
rhand -29.4001 -25.6958
rfingers 7.12502
rthumb -2.73808 -55.6579
lclavicle 3.49364e-014 1.92821e-014
lhumerus -47.9436 -2.8897 91.0557
lradius 43.4965
lwrist 5.95202
lhand -17.9681 12.5013
lfingers 7.12502
lthumb 8.30109 42.3182
rfemur -37.2082 -7.60068 16.6254
rtibia 43.7988
rfoot -11.9577 -5.94564
rtoes -4.89044
lfemur -21.9728 5.95322 -23.6029
ltibia 43.0881
lfoot -25.1676 -4.05176
ltoes 29.2474
796
root -9.32357 16.7189 -23.7733 -170.206 -11.3572 -182.449
lowerback -0.357995 -0.0657062 -1.43383
upperback 0.892771 -0.0939373 -1.52955
thorax 1.11412 -0.0671308 -0.764051
lowerneck -2.547 -3.81486 -3.62829
upperneck 1.11631 -5.44496 10.472
head 1.24453 -2.72431 3.95329
rclavicle -2.6339e-014 -7.15625e-015
rhumerus -47.1489 1.1679 -89.7756
rradius 40.7755
rwrist 17.2186
rhand -29.4543 -26.2331
rfingers 7.12502
rthumb -2.79043 -56.1946
lclavicle -2.6339e-014 -7.15625e-015
lhumerus -47.2972 -3.26435 91.2241
lradius 43.6721
lwrist 4.54655
lhand -18.4439 12.4232
lfingers 7.12502
lthumb 7.84194 42.2578
rfemur -37.8655 -7.32019 16.6932
rtibia 43.7272
rfoot -11.509 -5.43401
rtoes -4.71342
lfemur -22.2048 6.57343 -23.5433
ltibia 42.2206
lfoot -25.4146 -4.39479
ltoes 29.0295
797
root -9.34135 16.7269 -23.6876 -169.846 -11.148 -182.412
lowerback -0.391637 -0.126155 -1.46898
upperback 0.736491 -0.174299 -1.49141
thorax 0.972906 -0.105781 -0.705943
lowerneck -2.89528 -3.69897 -3.46782
upperneck 1.45245 -5.31415 10.3337
head 1.39546 -2.64217 3.86991
rclavicle -1.93815e-015 1.17283e-014
rhumerus -47.632 1.63974 -90.0092
rradius 41.9942
rwrist 18.0191
rhand -29.0594 -26.6233
rfingers 7.12502
rthumb -2.40904 -56.5895
lclavicle -1.93815e-015 1.17283e-014
lhumerus -46.8316 -4.25616 91.717
lradius 44.4375
lwrist 4.0178
lhand -19.0221 13.2323
lfingers 7.12502
lthumb 7.28386 43.0869
rfemur -38.6088 -7.41391 16.6329
rtibia 43.7334
rfoot -11.1744 -4.71255
rtoes -5.14463
lfemur -22.4497 6.91162 -23.6263
ltibia 41.4501
lfoot -25.3646 -5.23431
ltoes 30.5087
798
root -9.35688 16.7343 -23.6046 -169.47 -11.0717 -182.586
lowerback -0.449446 -0.264439 -1.74035
upperback 0.601159 -0.358409 -1.48582
thorax 0.868168 -0.199188 -0.550272
lowerneck -3.17144 -3.5533 -3.30099
upperneck 1.66537 -5.13524 10.1995
head 1.49012 -2.54114 3.79106
rclavicle 1.66979e-014 7.95139e-016
rhumerus -47.6983 2.21714 -90.2661
rradius 42.4879
rwrist 18.7994
rhand -28.5386 -26.4914
rfingers 7.12502
rthumb -1.90607 -56.4627
lclavicle 1.66979e-014 7.95139e-016
lhumerus -46.4726 -5.45577 92.2539
lradius 45.3811
lwrist 3.88304
lhand -20.1556 12.4148
lfingers 7.12502
lthumb 6.18958 42.3043
rfemur -39.3499 -7.61923 16.3387
rtibia 43.8854
rfoot -10.6023 -3.88878
rtoes -5.66514
lfemur -22.7933 7.29417 -23.9712
ltibia 40.8323
lfoot -25.2513 -6.04562
ltoes 31.8943
799
root -9.36748 16.7466 -23.5178 -169.055 -11.0058 -182.78
lowerback -0.42563 -0.389716 -2.05363
upperback 0.384936 -0.529795 -1.47763
thorax 0.636862 -0.284887 -0.367153
lowerneck -3.20379 -3.41486 -3.15545
upperneck 1.69626 -4.9501 10.0545
head 1.4818 -2.44733 3.71725
rclavicle 1.28216e-014 -1.25234e-014
rhumerus -48.1169 2.5104 -90.3908
rradius 43.5
rwrist 19.4667
rhand -27.9323 -26.0671
rfingers 7.12502
rthumb -1.32057 -56.0427
lclavicle 1.28216e-014 -1.25234e-014
lhumerus -46.1486 -6.55673 92.7525
lradius 46.3307
lwrist 3.95982
lhand -19.8238 13.4693
lfingers 7.12502
lthumb 6.50992 43.3493
rfemur -40.221 -7.90413 16.0875
rtibia 44.2002
rfoot -10.5698 -3.03541
rtoes -7.91178
lfemur -23.347 7.93039 -24.4181
ltibia 40.3914
lfoot -24.8891 -6.81124
ltoes 32.8196
800
root -9.37197 16.7599 -23.4231 -168.757 -10.9523 -183.14
lowerback -0.242019 -0.531844 -2.60895
upperback 0.315488 -0.729012 -1.4842
thorax 0.471327 -0.386964 -0.0627703
lowerneck -3.30048 -3.28687 -3.09414
upperneck 1.49981 -4.76331 10.0165
head 1.41812 -2.35697 3.69668
rclavicle -3.18552e-014 -2.14687e-014
rhumerus -48.3007 2.67563 -90.4133
rradius 44.5034
rwrist 20.1638
rhand -27.4985 -25.5309
rfingers 7.12502
rthumb -0.901601 -55.5088
lclavicle -3.18552e-014 -2.14687e-014
lhumerus -45.5958 -7.63346 93.1258
lradius 47.3771
lwrist 3.99883
lhand -20.7142 11.8123
lfingers 7.12502
lthumb 5.65032 41.717
rfemur -41.0407 -8.0579 15.6474
rtibia 44.7792
rfoot -10.0962 -2.34458
rtoes -10.1168
lfemur -23.8807 8.43003 -25.0319
ltibia 40.0639
lfoot -24.3688 -7.34471
ltoes 33.0556
801
root -9.36858 16.7669 -23.3172 -168.489 -10.8814 -183.284
lowerback 0.211621 -0.605902 -2.94228
upperback 0.138249 -0.852683 -1.46304
thorax 0.0427881 -0.44472 0.151571
lowerneck -3.28665 -3.20022 -3.0645
upperneck 1.23657 -4.629 10.019
head 1.31939 -2.29753 3.69634
rclavicle -2.5842e-015 1.8487e-014
rhumerus -48.6423 2.65777 -90.4357
rradius 45.4944
rwrist 20.6886
rhand -27.4784 -25.0726
rfingers 7.12502
rthumb -0.882172 -55.0505
lclavicle -2.5842e-015 1.8487e-014
lhumerus -45.0677 -8.7542 93.3993
lradius 48.3024
lwrist 3.84618
lhand -19.6058 12.2137
lfingers 7.12502
lthumb 6.7204 42.0871
rfemur -42.0399 -7.90209 15.4013
rtibia 45.6621
rfoot -8.74065 -1.62941
rtoes -8.68527
lfemur -24.5237 8.77194 -25.4197
ltibia 39.8558
lfoot -23.9702 -7.38844
ltoes 32.5956
